<svg viewBox="0 0 512 512" xmlns="http://www.w3.org/2000/svg">
  <circle cx="256" cy="256" r="240" fill="none" stroke="#000" stroke-width="32"/>

  <!-- Cyan/blue section (top right) -->
  <path d="M256,256 L256,16 A240,240 0 0,1 496,256 Z" fill="#00d4ff"/>

  <!-- White section (left) -->
  <path d="M256,256 L16,256 A240,240 0 0,1 256,16 Z" fill="#fff"/>

  <!-- Green section (bottom) -->
  <path d="M256,256 L496,256 A240,240 0 0,1 256,496 Z" fill="#00d449"/>

  <!-- Dog head outline -->
  <g transform="translate(100, 80)">
    <!-- Ear (left) - oval shape -->
    <ellipse cx="80" cy="120" rx="35" ry="60" fill="#00d449" stroke="#000" stroke-width="12"/>

    <!-- Head outline -->
    <path d="M 120,60 Q 140,40 180,40 Q 220,40 250,60 L 280,80 Q 290,85 290,95 L 290,110 Q 340,140 340,200 Q 340,280 280,320 Q 240,340 200,340 Q 140,340 100,300 Q 60,260 60,200 Q 60,140 120,110 Z"
          fill="#fff" stroke="#000" stroke-width="12"/>

    <!-- Nose/snout area (green) -->
    <path d="M 200,280 Q 180,300 160,320 Q 140,340 140,380 Q 140,420 180,440 Q 220,460 260,440 Q 280,420 280,400 Q 280,340 240,300 Q 220,280 200,280 Z"
          fill="#00d449" stroke="#000" stroke-width="12"/>

    <!-- Collar/tag area (small green rectangle) -->
    <rect x="260" y="70" width="25" height="20" rx="5" fill="#00d449" stroke="#000" stroke-width="8"/>
  </g>
</svg>
