<?xml version="1.0" encoding="UTF-8"?><svg id="Layer_1" xmlns="http://www.w3.org/2000/svg" xmlns:xlink="http://www.w3.org/1999/xlink" viewBox="0 0 905.82 905.82"><defs><style>.cls-1{fill:url(#linear-gradient-7);}.cls-2{fill:url(#linear-gradient-5);}.cls-3{fill:url(#linear-gradient-6);}.cls-4{fill:url(#linear-gradient-4);}.cls-5{fill:url(#linear-gradient-3);}.cls-6{fill:url(#linear-gradient-2);}.cls-7{fill:url(#linear-gradient);}.cls-8{fill:#fff;}.cls-9{fill:none;stroke:#000;stroke-miterlimit:10;stroke-width:30px;}</style><linearGradient id="linear-gradient" x1="441.6" y1="293.43" x2="890.42" y2="293.43" gradientTransform="translate(0 908) scale(1 -1)" gradientUnits="userSpaceOnUse"><stop offset="0" stop-color="#276519"/><stop offset="1" stop-color="#00d449"/></linearGradient><linearGradient id="linear-gradient-2" x1="198.84" y1="443.39" x2="381.83" y2="443.39" gradientTransform="translate(0 908) scale(1 -1)" gradientUnits="userSpaceOnUse"><stop offset="0" stop-color="#276519"/><stop offset="1" stop-color="#00d449"/></linearGradient><linearGradient id="linear-gradient-3" x1="658.2" y1="558.27" x2="760.05" y2="558.27" gradientTransform="translate(0 908) scale(1 -1)" gradientUnits="userSpaceOnUse"><stop offset="0" stop-color="#276519"/><stop offset="1" stop-color="#00d449"/></linearGradient><linearGradient id="linear-gradient-4" x1="741.59" y1="577.87" x2="746.23" y2="577.87" gradientTransform="translate(0 908) scale(1 -1)" gradientUnits="userSpaceOnUse"><stop offset="0" stop-color="#276519"/><stop offset="1" stop-color="#00d449"/></linearGradient><linearGradient id="linear-gradient-5" x1="713.86" y1="592.31" x2="721.95" y2="592.31" gradientTransform="translate(0 908) scale(1 -1)" gradientUnits="userSpaceOnUse"><stop offset="0" stop-color="#276519"/><stop offset="1" stop-color="#00d449"/></linearGradient><linearGradient id="linear-gradient-6" x1="145.18" y1="678.46" x2="856.6" y2="658.37" gradientTransform="translate(0 908) scale(1 -1)" gradientUnits="userSpaceOnUse"><stop offset="0" stop-color="#15e1ff"/><stop offset=".37" stop-color="#00b2e9"/><stop offset=".64" stop-color="#00b2e9"/><stop offset="1" stop-color="#15e1ff"/></linearGradient><linearGradient id="linear-gradient-7" x1="13.83" y1="665.62" x2="891.99" y2="665.62" gradientTransform="translate(0 908) scale(1 -1)" gradientUnits="userSpaceOnUse"><stop offset="0" stop-color="#00fffb"/><stop offset="1" stop-color="#d4fffd"/></linearGradient></defs><path class="cls-7" d="M864.87,448.61c3.49,3.72,23.55,22.7,24.26,24.26,6.39,14.04-12.71,96.64-18.49,114.96-56.76,180-235.71,309.78-425.75,302.13,4.15-28.85,6.43-57.99,5.2-87.23-1.15-27.22-10.51-60.65-8.09-86.65,4.65-49.92,69.76-119.03,111.49-143.84,55.1-32.76,140.47-22.23,184.28-79.14,23.57-30.62,37.13-114.18,20.8-148.46-.2-.43.13-1.33-1.16-1.16-.59-2.24-1.11-2.19-1.16-2.31-.19-.51.1-1.58,0-2.31,35.12,30.86,76.15,75.15,108.6,109.76h.02Z"/><path class="cls-6" d="M247.33,307.66c5.7-1.29,103.34-1.33,108.6,0,2.33.59,6.65,5.2,7.51,7.51,7.61,20.36,15.45,101.87,17.33,127.09,5.04,67.58-3.95,231.28-114.96,164.64-89.29-53.6-75.18-185.8-38.7-267.47,3.43-7.68,12.64-30.05,20.22-31.77h0Z"/><path class="cls-5" d="M713.86,316.83c2.61.12,8.24.11,10.74.46,8.37,1.15,10.63,3.96,16.99,8.79.32,2.8,16.82,15.69,16.99,18.56.97,16.94,7.34,48.19-16.99,34.97-5.15-2.8-40.31-14.08-49.1-17.71-9.47-3.91-23.04-.87-29.46-10.98-20.84-32.82,31.39-35.01,50.84-34.08h-.01Z"/><path class="cls-4" d="M746.21,330.7c.1.73-.19,1.8,0,2.31l-3.47,1.16c-.16-2.87-.83-5.29-1.16-8.09,1.89,1.44,2.83,3.05,4.62,4.62h0Z"/><path class="cls-2" d="M721.95,316.83c-2.5-.34-5.48.12-8.09,0v-2.31c1.83.55,6.59-.17,8.09,2.31Z"/><path class="cls-3" d="M864.87,448.61c-32.46-34.61-73.49-78.9-108.6-109.76-1.79-1.57-2.73-3.19-4.62-4.62-6.36-4.83-11.27-8.09-19.64-9.24-1.5-2.48-6.26-1.76-8.09-2.31-34.46-10.35-69.73-18.14-103.98-28.88-21.31-21.76-42.34-44-64.7-64.7-22.84-21.14-34.29-34-66.43-42.75-105.9-28.83-201.04,28.47-285.37,84.34-23.17-25.94-49.04-49.24-74.52-72.79C271.01,9.49,552.2-13.33,727.96,143.6c84.96,75.85,139.98,189.99,136.91,305.02h0Z"/><path class="cls-1" d="M889.14,472.88c-.71-1.56-20.77-20.54-24.26-24.26,3.07-115.03-51.95-229.16-136.91-305.02C552.2-13.33,271.01,9.49,128.91,197.9c-4.85-4.49-9.46-8.94-13.86-13.86h-1.16C52.89,260.95,30.85,359.51,13.95,454.39,8.21,214.08,209.5,14.12,448.37,11.89c232.41-2.18,430.65,180.16,443.08,413.04.79,14.8,1.21,34.16-2.31,47.95h0Z"/><path class="cls-8" d="M758.58,344.63c-1.14.14-.96-.43-1.16-1.16,1.28-.18.95.73,1.16,1.16Z"/><path class="cls-9" d="M15.11,456.66C15.11,215.14,210.9,19.36,452.41,19.36s437.3,195.78,437.3,437.3-195.78,437.3-437.3,437.3c0,0-9.45-131.2,0-184.1,9.45-52.91,103.92-139.82,164.39-151.16,60.46-11.34,141.71-24.56,145.49-134.15,3.78-109.59-30.23-103.92-115.26-122.82-85.03-18.89-109.59-111.48-194.62-120.93-85.03-9.45-164.39,15.12-213.51,117.15-49.13,102.03-62.35,236.19,15.12,306.1,77.47,69.91,119.04-39.68,124.71-69.91,5.67-30.23,18.89-143.6-28.34-211.62"/><path class="cls-9" d="M658.46,304.19s-4.72,47.5,25.93,65.97c30.65,18.48,76.98,12.29,76.98,12.29"/></svg>
